<svg xmlns="http://www.w3.org/2000/svg" viewBox="0 0 106.21 38.5"><defs><style>.cls-1{fill:#fff;}.cls-2{fill:none;}</style></defs><g id="Layer_2" data-name="Layer 2"><g id="Layer_3" data-name="Layer 3"><path class="cls-1" d="M9.35,27.77V23.42h2.88V19.18a7.11,7.11,0,0,1,2-5.26,7.24,7.24,0,0,1,5.3-2,9.14,9.14,0,0,1,3.76.63v4.51a8.08,8.08,0,0,0-3.54-.73,2.86,2.86,0,0,0-2.11.74,2.79,2.79,0,0,0-.77,2.08v4.24h6.9v4.35H9.35Z"/><path class="cls-1" d="M42.09,27.77H37.91V25.26a5.18,5.18,0,0,1-1.91,2,5.44,5.44,0,0,1-2.92.77,6.53,6.53,0,0,1-5.21-2.28,8.5,8.5,0,0,1-2-5.77,8.45,8.45,0,0,1,2-5.77A6.56,6.56,0,0,1,33.09,12a4.84,4.84,0,0,1,4.66,2.52V6.59h4.34Zm-10.78-5a3.77,3.77,0,0,0,2.78,1.07A3.62,3.62,0,0,0,37.9,20a3.62,3.62,0,0,0-3.81-3.82,3.79,3.79,0,0,0-2.78,1A3.72,3.72,0,0,0,30.25,20,3.79,3.79,0,0,0,31.31,22.75Z"/><path class="cls-1" d="M46.07,17.43V13.48A13.6,13.6,0,0,1,52.6,12a8.13,8.13,0,0,1,5.55,1.66A5.76,5.76,0,0,1,60,18.17v9.6H56V25.43c-1,1.75-2.78,2.63-5.22,2.63a5.89,5.89,0,0,1-4.1-1.34,4.62,4.62,0,0,1-1.47-3.58A4.45,4.45,0,0,1,47,19.4,8.42,8.42,0,0,1,52.2,18h3.44c0-1.45-1.11-2.17-3.22-2.17A12.8,12.8,0,0,0,46.07,17.43Zm9.7,4.07v-.26H52.15c-1.77,0-2.66.49-2.66,1.47s.81,1.47,2.43,1.47a4.73,4.73,0,0,0,2.84-.73A2.32,2.32,0,0,0,55.77,21.5Z"/><path class="cls-1" d="M63.68,12.23h4.17v2.51a5.17,5.17,0,0,1,4.86-2.8,6.51,6.51,0,0,1,5.18,2.28,8.5,8.5,0,0,1,2,5.77,8.53,8.53,0,0,1-2,5.77,6.52,6.52,0,0,1-5.18,2.29A4.88,4.88,0,0,1,68,25.53v7.88H63.66V12.23Zm8,3.95a3.7,3.7,0,0,0-2.78,1.05,3.74,3.74,0,0,0-1,2.76,3.75,3.75,0,0,0,1,2.77,3.7,3.7,0,0,0,2.78,1A3.59,3.59,0,0,0,75.51,20a3.61,3.61,0,0,0-3.81-3.81Z"/><path class="cls-1" d="M82.89,12.23h4.18v2.51a5.14,5.14,0,0,1,4.85-2.8,6.49,6.49,0,0,1,5.18,2.28,8.5,8.5,0,0,1,2,5.77,8.53,8.53,0,0,1-2,5.77,6.5,6.5,0,0,1-5.18,2.29,4.88,4.88,0,0,1-4.69-2.52v7.88H82.88V12.23Zm8,3.95a3.7,3.7,0,0,0-2.78,1.05,3.74,3.74,0,0,0-1,2.76,3.75,3.75,0,0,0,1,2.77,3.7,3.7,0,0,0,2.78,1A3.59,3.59,0,0,0,94.72,20a3.61,3.61,0,0,0-3.81-3.81Z"/><rect class="cls-2" width="106.21" height="38.5"/></g></g></svg>